<svg xmlns="http://www.w3.org/2000/svg" xmlns:xlink="http://www.w3.org/1999/xlink" width="300" zoomAndPan="magnify" viewBox="0 0 224.87999 225" height="300" preserveAspectRatio="xMidYMid meet" version="1.0"><defs><g/><clipPath id="7209daf699"><path d="M 0 122 L 224.761719 122 L 224.761719 158 L 0 158 Z M 0 122 " clip-rule="nonzero"/></clipPath><clipPath id="cc44546a92"><path d="M 0.386719 123.207031 L 224.515625 121.9375 L 224.710938 156.417969 L 0.582031 157.6875 Z M 0.386719 123.207031 " clip-rule="nonzero"/></clipPath><clipPath id="6565bc146f"><path d="M 0.386719 123.207031 L 224.515625 121.9375 L 224.710938 156.417969 L 0.582031 157.6875 Z M 0.386719 123.207031 " clip-rule="nonzero"/></clipPath><clipPath id="b53e60df8d"><path d="M 126 58 L 224.761719 58 L 224.761719 173 L 126 173 Z M 126 58 " clip-rule="nonzero"/></clipPath><clipPath id="18e5210637"><path d="M 97 60 L 133 60 L 133 79 L 97 79 Z M 97 60 " clip-rule="nonzero"/></clipPath><clipPath id="400b5e6e5c"><path d="M 92.617188 38.144531 L 142.714844 41.707031 L 140.003906 79.839844 L 89.90625 76.277344 Z M 92.617188 38.144531 " clip-rule="nonzero"/></clipPath><clipPath id="d1a36796be"><path d="M 92.617188 38.144531 L 142.714844 41.707031 L 140.003906 79.839844 L 89.90625 76.277344 Z M 92.617188 38.144531 " clip-rule="nonzero"/></clipPath><clipPath id="ab18f47186"><path d="M 91 39 L 142 39 L 142 66 L 91 66 Z M 91 39 " clip-rule="nonzero"/></clipPath><clipPath id="0d75827d79"><path d="M 92.617188 38.144531 L 142.714844 41.707031 L 140.003906 79.839844 L 89.90625 76.277344 Z M 92.617188 38.144531 " clip-rule="nonzero"/></clipPath><clipPath id="906afdb23e"><path d="M 92.617188 38.144531 L 142.714844 41.707031 L 140.003906 79.839844 L 89.90625 76.277344 Z M 92.617188 38.144531 " clip-rule="nonzero"/></clipPath></defs><g clip-path="url(#7209daf699)"><g clip-path="url(#cc44546a92)"><g clip-path="url(#6565bc146f)"><path fill="#050a30" d="M 75.46875 126.960938 C 75.25 126.632812 75.179688 126.53125 75.066406 126.359375 C 77.957031 125.960938 80.78125 125.550781 83.613281 125.195312 C 84.410156 125.09375 85.226562 125.160156 86.03125 125.121094 C 86.398438 125.105469 86.765625 125.011719 87.136719 124.980469 C 87.648438 124.933594 88.164062 124.933594 88.679688 124.875 C 89.34375 124.800781 90.007812 124.71875 90.664062 124.609375 C 92.09375 124.371094 93.515625 124.097656 94.949219 123.878906 C 95.753906 123.757812 96.570312 123.714844 97.386719 123.640625 C 99.113281 123.488281 100.84375 123.238281 102.570312 123.214844 C 103.695312 123.203125 104.773438 122.761719 105.972656 123.125 C 106.722656 123.351562 107.664062 122.859375 108.523438 122.835938 C 110.152344 122.796875 111.78125 122.882812 113.410156 122.875 C 114.308594 122.867188 115.207031 122.757812 116.105469 122.722656 C 117.46875 122.660156 118.835938 122.601562 120.199219 122.570312 C 121.238281 122.546875 122.277344 122.550781 123.316406 122.570312 C 124.660156 122.59375 126.003906 122.6875 127.34375 122.679688 C 128.476562 122.675781 129.605469 122.5625 130.738281 122.511719 C 131.175781 122.492188 131.617188 122.488281 132.054688 122.503906 C 133.125 122.546875 134.199219 122.585938 135.269531 122.675781 C 135.710938 122.710938 136.132812 122.894531 136.570312 122.960938 C 136.921875 123.011719 137.285156 122.984375 137.640625 123.007812 C 139.253906 123.128906 140.863281 123.28125 142.476562 123.363281 C 143.554688 123.417969 144.636719 123.34375 145.710938 123.378906 C 146.035156 123.390625 146.347656 123.652344 146.675781 123.679688 C 147.015625 123.710938 147.378906 123.511719 147.710938 123.558594 C 148.789062 123.699219 149.855469 123.921875 150.933594 124.089844 C 151.539062 124.179688 152.152344 124.234375 152.765625 124.273438 C 153.703125 124.34375 154.644531 124.386719 155.582031 124.441406 C 156.820312 124.511719 158.097656 124.417969 159.285156 124.699219 C 160.726562 125.039062 162.179688 125.09375 163.609375 125.308594 C 164.816406 125.496094 166.011719 125.757812 167.242188 125.871094 C 169.335938 126.066406 171.421875 126.371094 173.488281 126.757812 C 176.210938 127.265625 178.914062 127.882812 181.621094 128.484375 C 182.480469 128.675781 183.3125 128.984375 184.160156 129.210938 C 184.457031 129.292969 184.785156 129.242188 185.085938 129.3125 C 186.480469 129.640625 187.859375 130.011719 189.261719 130.324219 C 190.261719 130.550781 191.289062 130.6875 192.292969 130.917969 C 194.003906 131.3125 195.714844 131.707031 197.402344 132.1875 C 198.515625 132.5 199.5625 133.078125 200.683594 133.300781 C 201.484375 133.460938 202.277344 133.472656 202.851562 134.148438 C 203.816406 133.453125 204.496094 134.910156 205.433594 134.5 C 205.519531 134.460938 205.722656 134.527344 205.777344 134.609375 C 206.535156 135.757812 207.921875 135.332031 208.933594 135.875 C 210.214844 136.566406 211.625 137.011719 212.960938 137.605469 C 214.519531 138.296875 216.128906 138.921875 217.566406 139.808594 C 218.117188 140.148438 218.675781 140.359375 219.238281 140.617188 C 219.933594 140.9375 220.613281 141.289062 221.304688 141.625 C 221.359375 141.652344 222.726562 142.824219 222.804688 142.882812 C 222.855469 142.917969 222.953125 142.882812 223.007812 142.917969 C 223.476562 143.175781 223.9375 143.445312 224.402344 143.707031 C 224.34375 143.800781 224.285156 143.902344 224.230469 144 C 224.015625 143.871094 223.800781 143.746094 223.519531 143.578125 L 223.523438 144.335938 C 222.746094 143.835938 222.125 143.332031 221.421875 143.027344 C 221.054688 142.871094 220.542969 143.054688 220.027344 143.257812 C 221.304688 143.546875 221.980469 144.460938 222.667969 145.488281 C 221.933594 146.921875 224.046875 146.882812 224.050781 148.25 C 223.414062 148.378906 222.648438 148.53125 221.820312 148.699219 C 221.835938 148.792969 221.871094 149.007812 221.929688 149.460938 C 221.355469 149.089844 220.921875 148.820312 220.433594 148.507812 C 220.378906 148.761719 220.335938 148.96875 220.304688 149.117188 C 215.285156 147.472656 210.253906 145.820312 205.191406 144.15625 C 205.175781 144.289062 205.160156 144.449219 205.132812 144.734375 C 204.257812 144.179688 203.449219 143.667969 202.425781 143.011719 C 202.613281 143.347656 202.6875 143.480469 202.761719 143.605469 C 202.71875 143.6875 202.679688 143.765625 202.640625 143.847656 C 201.882812 143.398438 201.136719 142.929688 200.363281 142.5 C 200.117188 142.367188 199.789062 142.226562 199.539062 142.277344 C 198.960938 142.394531 197.535156 142.070312 196.925781 141.941406 C 196.347656 141.824219 195.914062 141.332031 195.164062 141.515625 C 194.554688 141.664062 193.402344 141.453125 193.203125 141.054688 C 192.742188 140.121094 192.265625 140.425781 191.625 140.574219 C 191.445312 140.617188 191.1875 140.273438 190.945312 140.144531 C 190.5625 139.949219 190.140625 139.746094 190.15625 140.441406 C 187.863281 139.980469 185.546875 139.550781 183.25 139.035156 C 182.292969 138.820312 181.378906 138.417969 180.4375 138.117188 C 180.339844 138.085938 180.179688 138.253906 180.070312 138.226562 C 179.550781 138.109375 178.933594 138.09375 178.550781 137.785156 C 177.636719 137.035156 176.734375 136.828125 175.660156 137.460938 C 175.519531 137.113281 175.695312 136.242188 174.941406 137.082031 C 174.714844 137.339844 173.839844 137.09375 173.292969 136.960938 C 172.480469 136.761719 171.703125 136.417969 170.898438 136.203125 C 170.46875 136.09375 170.003906 136.125 169.558594 136.09375 C 169.5 135.945312 169.4375 135.792969 169.378906 135.644531 C 169.292969 135.914062 169.214844 136.1875 169.128906 136.457031 L 168.847656 136.296875 C 168.75 136.066406 168.65625 135.839844 168.570312 135.632812 C 167.597656 136.40625 167.097656 135.15625 166.226562 135.3125 C 166.203125 135.925781 165.65625 135.746094 165.121094 135.644531 C 164.398438 135.507812 163.667969 135.457031 162.957031 135.285156 C 161.691406 134.976562 160.386719 135.105469 159.128906 134.84375 C 158.878906 134.789062 158.609375 134.65625 158.4375 134.472656 C 158.105469 134.128906 158.152344 134.125 157.734375 134.496094 C 157.632812 134.585938 157.359375 134.539062 157.191406 134.484375 C 156.558594 134.277344 155.949219 134.03125 155.316406 133.84375 C 155.246094 133.824219 155.09375 134.066406 154.957031 134.214844 C 153.367188 133.230469 151.480469 133.457031 149.65625 133.304688 C 149.3125 133.273438 148.988281 133.074219 148.648438 133.039062 C 147.804688 132.953125 146.964844 132.894531 146.117188 132.863281 C 145.164062 132.824219 144.210938 132.847656 143.261719 132.796875 C 142.199219 132.742188 141.136719 132.628906 140.074219 132.535156 C 139.332031 132.46875 138.589844 132.386719 137.847656 132.347656 C 137.628906 132.335938 137.402344 132.429688 136.902344 132.539062 C 137.339844 132.695312 137.496094 132.753906 137.785156 132.851562 C 137.070312 132.882812 136.414062 133.105469 136.292969 132.085938 C 135.492188 132.574219 134.769531 132.691406 133.90625 132.21875 C 133.449219 131.972656 132.722656 132.234375 132.117188 132.238281 C 131.738281 132.238281 131.359375 132.1875 130.75 132.144531 C 130.730469 132.167969 130.5625 132.382812 130.382812 132.617188 C 130.300781 132.558594 130.207031 132.523438 130.152344 132.457031 C 130.035156 132.3125 129.847656 132.015625 129.835938 132.019531 C 129.199219 132.414062 128.480469 131.847656 127.945312 132.097656 C 127.503906 132.300781 126.78125 131.707031 126.601562 132.558594 C 126.601562 132.574219 126.296875 132.589844 126.253906 132.519531 C 125.617188 131.546875 124.800781 132.328125 124.066406 132.289062 C 123.652344 132.261719 123.238281 132.210938 122.859375 132.121094 C 122.449219 132.15625 122.023438 132.246094 121.621094 132.207031 C 120.753906 132.128906 119.894531 131.984375 119.027344 131.882812 C 118.9375 131.875 118.816406 131.976562 118.726562 132.050781 C 118.015625 132.65625 117.191406 132.503906 116.378906 132.414062 C 116.15625 132.386719 115.929688 132.324219 115.730469 132.28125 C 115.285156 132.324219 114.949219 132.40625 114.625 132.375 C 114.347656 132.347656 113.988281 133.003906 113.714844 132.269531 C 113.675781 132.175781 112.738281 132.421875 112.117188 132.523438 C 112.117188 132.523438 112.054688 132.316406 111.976562 132.050781 C 111.597656 132.316406 111.398438 133.105469 110.835938 132.34375 C 110.789062 132.285156 110.324219 132.460938 110.117188 132.613281 C 109.730469 132.886719 109.761719 132.90625 109.523438 132.421875 C 109.472656 132.3125 109.28125 132.199219 109.167969 132.207031 C 108.238281 132.292969 107.3125 132.417969 106.382812 132.496094 C 105.460938 132.574219 104.527344 132.597656 103.605469 132.671875 C 101.871094 132.8125 100.136719 132.984375 98.40625 133.125 C 97.988281 133.160156 97.5625 133.132812 97.113281 133.136719 C 97.179688 133.265625 97.277344 133.445312 97.308594 133.515625 C 96.421875 133.460938 95.539062 133.355469 94.660156 133.375 C 94.335938 133.378906 94.515625 134.265625 93.75 133.984375 C 93.328125 133.828125 92.757812 134.058594 92.261719 134.148438 C 91.914062 134.214844 91.445312 134.617188 91.515625 133.800781 C 91.34375 133.796875 91.097656 133.71875 91.027344 133.800781 C 90.625 134.253906 90.289062 134.632812 89.578125 134.210938 C 89.359375 134.082031 88.871094 134.488281 88.488281 134.53125 C 88.160156 134.570312 87.816406 134.445312 87.390625 134.378906 C 87.1875 134.96875 86.46875 134.882812 85.855469 134.90625 C 85.28125 134.933594 84.574219 135.539062 84.152344 134.621094 C 83.746094 135.40625 81.945312 135.59375 80.933594 134.953125 C 80.683594 135.632812 77.832031 136.082031 77.3125 135.683594 C 76.945312 135.851562 76.699219 136.035156 76.4375 136.0625 C 74.957031 136.234375 73.464844 136.316406 71.996094 136.527344 C 70.929688 136.683594 69.890625 137.054688 68.824219 137.226562 C 67.738281 137.394531 66.613281 137.347656 65.535156 137.5625 C 64.460938 137.773438 63.445312 138.246094 62.378906 138.507812 C 60.746094 138.90625 59.089844 139.21875 57.445312 139.570312 C 56.382812 139.792969 55.324219 140.046875 54.253906 140.242188 C 53.863281 140.3125 53.445312 140.257812 52.953125 140.257812 C 52.953125 140.25 52.953125 140.527344 52.90625 140.539062 C 52.273438 140.65625 51.636719 140.761719 50.996094 140.8125 C 50.761719 140.832031 50.515625 140.683594 50.1875 140.578125 C 49.96875 141.582031 49 141.316406 48.179688 141.4375 C 47.230469 141.578125 46.304688 141.847656 45.355469 141.996094 C 44.867188 142.066406 44.429688 142.113281 44.046875 142.488281 C 43.929688 142.605469 43.53125 142.433594 43.304688 142.398438 C 42.523438 142.65625 41.714844 142.949219 40.890625 143.191406 C 40.167969 143.398438 39.40625 143.734375 38.695312 143.675781 C 37.699219 143.585938 36.980469 144.328125 35.964844 144.300781 C 35.453125 144.289062 34.597656 144.03125 34.132812 144.519531 C 33.476562 145.207031 32.414062 144.429688 31.84375 145.28125 C 31.761719 145.398438 31.40625 145.332031 31.15625 145.355469 C 31.121094 145.5625 31.085938 145.773438 31.050781 145.976562 C 30.039062 145.667969 29.160156 145.988281 28.308594 146.429688 C 27.996094 146.589844 27.71875 146.882812 27.390625 146.960938 C 26.5625 147.160156 25.699219 147.1875 24.886719 147.417969 C 22.753906 148.023438 20.632812 148.675781 18.519531 149.347656 C 17.449219 149.691406 16.304688 149.957031 15.386719 150.558594 C 14.871094 150.898438 14.019531 150.679688 13.796875 151.472656 C 13.699219 151.4375 13.59375 151.414062 13.507812 151.367188 C 13.339844 151.285156 13.179688 151.183594 12.910156 151.027344 C 13.28125 152.28125 12.179688 152.117188 11.703125 152.703125 C 11.628906 152.332031 11.585938 152.097656 11.503906 151.679688 C 11.023438 152.136719 10.652344 152.519531 10.25 152.867188 C 10.046875 153.046875 9.808594 153.222656 9.554688 153.292969 C 9.046875 153.429688 8.46875 153.390625 8.003906 153.613281 C 7.660156 153.773438 7.457031 154.230469 7.109375 154.648438 C 6.960938 154.582031 6.640625 154.433594 6.160156 154.214844 C 6.277344 154.574219 6.335938 154.757812 6.386719 154.914062 C 5.386719 154.695312 4.902344 155.113281 4.707031 156.128906 C 4.476562 155.941406 4.296875 155.785156 4.179688 155.695312 C 3.082031 156.246094 1.960938 156.8125 0.84375 157.375 C 0.753906 157.269531 0.660156 157.171875 0.570312 157.066406 C 0.710938 156.8125 0.84375 156.554688 0.988281 156.304688 C 1.292969 155.785156 1.789062 155.394531 1.457031 154.597656 C 1.324219 154.273438 1.878906 153.664062 2.1875 153.058594 C 2.167969 153.027344 2.03125 152.796875 1.953125 152.664062 C 2.21875 152.339844 2.414062 152.09375 2.617188 151.859375 C 3.722656 150.578125 4.921875 149.429688 6.433594 148.597656 C 8.273438 147.589844 10.011719 146.414062 11.851562 145.421875 C 13.703125 144.421875 15.589844 143.488281 17.523438 142.664062 C 19.304688 141.90625 21.195312 141.417969 22.929688 140.523438 C 23.804688 140.078125 24.8125 139.898438 25.746094 139.578125 C 26.601562 139.285156 27.449219 138.976562 28.285156 138.640625 C 29.902344 138 31.492188 137.289062 33.121094 136.691406 C 34.894531 136.035156 36.683594 135.410156 38.5 134.878906 C 39.671875 134.535156 40.910156 134.425781 42.101562 134.136719 C 42.667969 134 43.179688 133.628906 43.746094 133.480469 C 45.519531 133 47.316406 132.585938 49.097656 132.136719 C 50.320312 131.828125 51.527344 131.484375 52.75 131.1875 C 55.203125 130.589844 57.660156 130.015625 60.113281 129.421875 C 61.269531 129.144531 62.410156 128.820312 63.566406 128.570312 C 64.890625 128.289062 66.234375 128.105469 67.558594 127.835938 C 68.75 127.589844 69.921875 127.257812 71.113281 127.019531 C 71.855469 126.867188 72.609375 126.453125 73.378906 126.9375 C 73.394531 126.945312 73.445312 126.9375 73.457031 126.917969 C 74.011719 126.253906 74.632812 126.359375 75.441406 126.980469 Z M 90.792969 126.324219 C 91.246094 126.597656 91.699219 126.875 92.378906 127.285156 C 92.183594 126.871094 92.117188 126.714844 92.097656 126.679688 C 92.707031 126.535156 93.265625 126.40625 94.078125 126.214844 C 93.5 125.90625 93.148438 125.722656 92.796875 125.542969 C 92.46875 125.867188 91.972656 126.144531 91.828125 126.015625 C 91.222656 125.464844 91.035156 125.894531 90.8125 126.339844 C 90.402344 126.25 89.996094 126.160156 89.574219 126.0625 C 89.230469 126.980469 88.574219 126.117188 88.027344 126.257812 C 87.902344 126.429688 87.75 126.65625 87.480469 127.035156 C 88.253906 127.070312 88.90625 127.101562 89.460938 127.132812 C 89.644531 126.984375 89.800781 126.835938 89.976562 126.734375 C 90.238281 126.578125 90.519531 126.457031 90.796875 126.320312 Z M 22.035156 142.515625 C 22.5 142.75 22.96875 143.15625 23.304688 142.328125 C 23.359375 142.199219 23.839844 142.085938 23.867188 142.125 C 24.25 142.738281 24.699219 142.265625 25.019531 142.152344 C 26.765625 141.515625 28.484375 140.808594 30.21875 140.125 C 30.113281 139.789062 30.003906 139.425781 29.886719 139.050781 C 28.917969 139.425781 27.972656 139.800781 27.023438 140.15625 C 26.144531 140.488281 25.238281 140.765625 24.378906 141.148438 C 23.546875 141.519531 22.761719 141.996094 21.960938 142.425781 C 20.933594 141.960938 19.859375 142.59375 19.628906 143.984375 C 20.136719 143.558594 20.519531 143.234375 21.050781 142.789062 C 21.238281 142.753906 21.878906 143.625 22.035156 142.519531 Z M 168.152344 127.238281 C 167.945312 127.296875 167.734375 127.421875 167.546875 127.398438 C 165.816406 127.191406 164.082031 126.980469 162.355469 126.714844 C 160.535156 126.433594 158.726562 126.042969 156.898438 125.785156 C 155.195312 125.542969 153.46875 125.425781 151.757812 125.226562 C 151.144531 125.15625 150.546875 124.953125 149.929688 124.90625 C 148.679688 124.804688 147.417969 124.769531 146.160156 124.695312 C 143.65625 124.542969 141.152344 124.339844 138.644531 124.253906 C 137.472656 124.214844 136.3125 124.035156 135.085938 124.378906 C 134.214844 124.625 133.148438 124.136719 132.164062 124.042969 C 131.789062 124.007812 131.394531 124.171875 130.945312 124.261719 C 130.929688 124.253906 130.753906 124.042969 130.566406 124.035156 C 128.433594 123.964844 126.300781 123.90625 124.171875 123.882812 C 122.515625 123.859375 120.851562 123.886719 119.195312 123.894531 C 118.132812 123.902344 117.070312 123.894531 116.007812 123.933594 C 115.011719 123.96875 114 123.972656 113.023438 124.144531 C 111.511719 124.417969 109.882812 123.625 108.464844 124.675781 C 108.402344 124.722656 108.28125 124.691406 108.191406 124.691406 C 107.808594 124.683594 107.433594 124.667969 107.050781 124.664062 C 106.894531 124.667969 106.746094 124.695312 106.589844 124.691406 C 106.394531 124.691406 106.195312 124.675781 106 124.664062 C 105.996094 124.550781 105.761719 124.359375 105.679688 124.414062 C 105.160156 124.757812 104.214844 124.804688 104.597656 125.832031 C 105.492188 125.648438 106.378906 125.464844 107.339844 125.269531 C 107.917969 125.375 108.632812 125.609375 109.351562 125.617188 C 109.996094 125.625 110.640625 125.386719 111.402344 125.234375 C 111.566406 125.296875 112.089844 125.601562 112.175781 125.507812 C 112.964844 124.644531 113.75 125.015625 114.570312 125.386719 C 114.714844 125.457031 114.898438 125.445312 115.066406 125.441406 C 117.0625 125.402344 119.058594 125.390625 121.050781 125.308594 C 122.34375 125.257812 123.632812 125.09375 124.921875 124.996094 C 125.113281 124.980469 125.304688 125.054688 125.5 125.070312 C 125.867188 125.101562 126.230469 125.121094 126.597656 125.148438 L 126.574219 125.050781 C 127.058594 125.183594 127.542969 125.320312 127.898438 125.417969 C 128.097656 125.070312 128.21875 124.859375 128.339844 124.648438 L 128.507812 124.726562 C 128.46875 124.914062 128.433594 125.09375 128.425781 125.136719 L 131.757812 125.117188 C 131.746094 125.144531 131.734375 125.167969 131.714844 125.195312 C 132.230469 125.257812 132.742188 125.316406 133.3125 125.386719 L 133.308594 124.484375 C 133.167969 124.632812 133.027344 124.777344 132.886719 124.925781 C 133.292969 125.175781 133.703125 125.429688 134.109375 125.6875 C 134.199219 125.613281 134.277344 125.535156 134.363281 125.460938 C 134.550781 125.300781 134.734375 125.140625 134.980469 124.929688 C 135.007812 125.195312 135.027344 125.394531 135.054688 125.636719 C 135.558594 125.539062 136.019531 125.445312 136.582031 125.335938 C 136.808594 125.671875 137.890625 125.929688 138.316406 125.507812 C 138.867188 124.964844 139.164062 125.054688 139.332031 125.75 C 139.621094 125.71875 139.867188 125.664062 140.105469 125.675781 C 140.84375 125.726562 141.582031 125.792969 142.316406 125.875 C 143.011719 125.953125 143.703125 126.066406 144.394531 126.152344 C 145.019531 126.230469 145.636719 126.328125 146.265625 126.375 C 147.367188 126.453125 148.488281 126.628906 149.574219 126.519531 C 150.539062 126.421875 151.589844 127.433594 152.476562 126.320312 C 152.511719 126.277344 152.804688 126.359375 152.804688 126.390625 C 152.847656 127.207031 153.464844 126.855469 153.859375 126.90625 C 155.121094 127.078125 156.402344 127.171875 157.648438 127.410156 C 158.980469 127.667969 160.367188 127.457031 161.65625 127.984375 C 161.785156 128.03125 162.113281 127.914062 162.148438 127.804688 C 162.363281 127.132812 162.644531 127.851562 162.894531 127.761719 C 162.984375 127.730469 163.15625 128.058594 163.316406 128.082031 C 164.335938 128.257812 165.363281 128.414062 166.394531 128.539062 C 167.144531 128.628906 167.90625 128.671875 168.558594 128.726562 C 168.734375 128.574219 168.910156 128.480469 169.011719 128.332031 C 169.144531 128.128906 169.226562 127.886719 169.328125 127.65625 C 169.109375 127.628906 168.890625 127.558594 168.679688 127.578125 C 168.511719 127.59375 168.347656 127.71875 168.078125 127.839844 C 168.113281 127.585938 168.136719 127.421875 168.160156 127.21875 Z M 207.347656 138.210938 C 207.390625 138.171875 207.5625 138.007812 207.734375 137.839844 C 207.816406 138.042969 207.90625 138.253906 207.984375 138.457031 C 208.085938 138.71875 208.1875 138.984375 208.308594 139.300781 C 208.707031 138.585938 208.867188 138.304688 208.96875 138.125 C 209.183594 138.304688 209.363281 138.457031 209.546875 138.605469 C 209.550781 138.226562 209.496094 137.808594 209.28125 137.699219 C 208.101562 137.101562 206.925781 136.46875 205.667969 136.101562 C 205.308594 136 204.960938 135.925781 204.617188 135.734375 C 204.445312 135.636719 204.15625 135.746094 203.703125 135.78125 C 203.398438 135.683594 202.835938 135.5 202.269531 135.316406 C 202.53125 136.363281 203.859375 137.296875 205.054688 137.46875 C 205.792969 137.574219 206.496094 137.921875 207.347656 138.207031 Z M 98.019531 125.507812 C 98.019531 125.589844 98.003906 125.917969 97.988281 126.265625 C 99.019531 126.175781 99.941406 126.09375 100.855469 126.015625 C 100.855469 125.917969 100.851562 125.816406 100.851562 125.71875 C 101.027344 125.828125 101.199219 125.9375 101.433594 126.082031 C 101.488281 125.8125 101.53125 125.613281 101.640625 125.089844 C 101.921875 125.605469 102.089844 125.914062 102.320312 126.335938 C 102.695312 125.40625 102.5 124.972656 101.734375 125.042969 C 101.660156 125.046875 101.578125 124.980469 101.496094 124.976562 C 101.164062 124.953125 100.828125 124.941406 100.496094 124.941406 C 100.164062 124.941406 99.828125 124.945312 99.496094 124.96875 C 99.320312 124.976562 99.136719 125.015625 98.972656 125.082031 C 98.71875 125.175781 98.480469 125.300781 98.023438 125.511719 Z M 81.988281 128.171875 C 82.75 127.933594 83.496094 127.710938 84.234375 127.480469 C 84.742188 127.316406 84.773438 127.132812 84.355469 126.570312 C 83.351562 127.5 81.699219 126.820312 80.75 127.964844 C 81.132812 128.472656 81.871094 126.910156 81.988281 128.171875 Z M 42.894531 135.214844 C 42.78125 135.550781 42.671875 135.875 42.53125 136.285156 C 42.910156 136.253906 43.308594 136.21875 43.90625 136.164062 C 43.539062 135.902344 43.398438 135.800781 43.257812 135.699219 C 44.074219 135.695312 44.785156 135.65625 45.257812 134.769531 C 44.367188 134.9375 43.613281 135.078125 42.894531 135.214844 Z M 87.335938 127.046875 C 87.28125 126.988281 87.21875 126.929688 87.164062 126.875 C 86.703125 126.777344 86.25 126.648438 85.78125 126.597656 C 85.5625 126.570312 85.1875 126.628906 85.125 126.761719 C 84.984375 127.054688 84.996094 127.421875 84.945312 127.757812 L 85.421875 127.824219 C 85.519531 126.996094 86.171875 127.417969 86.585938 127.304688 C 86.835938 127.234375 87.078125 127.140625 87.328125 127.058594 Z M 188.347656 131.4375 C 188.265625 131.492188 188.1875 131.546875 188.105469 131.597656 C 188.308594 132.015625 188.511719 132.4375 188.714844 132.855469 C 188.976562 132.710938 189.464844 132.578125 189.472656 132.417969 C 189.527344 131.601562 188.574219 131.980469 188.347656 131.4375 Z M 93.824219 126.433594 C 94.695312 126.289062 95.292969 126.183594 95.894531 126.082031 C 95.902344 125.988281 95.910156 125.894531 95.917969 125.804688 C 95.460938 125.65625 94.992188 125.503906 94.515625 125.351562 C 94.335938 125.632812 94.167969 125.890625 93.820312 126.433594 Z M 30.023438 139.433594 C 30.492188 139.640625 30.835938 139.792969 31.1875 139.949219 C 31.304688 139.503906 31.40625 139.105469 31.574219 138.4375 C 30.917969 138.859375 30.523438 139.113281 30.023438 139.433594 Z M 9.726562 148.21875 C 9.667969 148.125 9.613281 148.023438 9.550781 147.929688 C 8.914062 148.21875 8.273438 148.507812 7.578125 148.824219 C 7.816406 149.074219 7.984375 149.296875 8.015625 149.285156 C 8.597656 148.945312 9.160156 148.582031 9.726562 148.21875 Z M 10.167969 147.898438 C 10.167969 147.898438 10.101562 147.9375 10.101562 147.960938 C 10.101562 147.984375 10.140625 148.007812 10.160156 148.03125 C 10.179688 148.007812 10.222656 147.988281 10.222656 147.964844 C 10.222656 147.941406 10.183594 147.921875 10.167969 147.898438 Z M 10.167969 147.898438 " fill-opacity="1" fill-rule="nonzero"/></g></g></g><path stroke-linecap="butt" transform="matrix(0.735896, -0.142679, 0.142679, 0.735896, 33.320581, 77.858526)" fill="none" stroke-linejoin="miter" d="M 18.299947 65.718352 C 15.709186 65.720317 13.384608 65.280234 11.330339 64.404208 C 9.27607 63.528183 7.518313 62.32746 6.051954 60.801047 C 4.584602 59.279749 3.439812 57.518427 2.610484 55.526319 C 1.782147 53.529096 1.286238 51.405231 1.118631 49.148617 L 10.122432 48.102227 C 10.241547 49.760233 10.598027 51.289092 11.188742 52.67758 C 11.773349 54.070192 12.650658 55.18514 13.817536 56.011202 C 14.978306 56.841387 16.474899 57.253641 18.301206 57.252087 C 20.508748 57.255444 22.192597 56.838774 23.345652 56.011319 C 24.498708 55.183865 25.282695 53.987596 25.701736 52.428621 C 26.126884 50.865523 26.333463 48.978715 26.336819 46.771173 L 26.335942 22.491499 L 7.168309 22.490897 L 7.172021 14.094115 L 35.485543 14.09504 L 35.48391 46.62841 C 35.483526 49.340803 35.171285 51.854719 34.546195 54.175276 C 33.922098 56.490716 32.934516 58.518048 31.575201 60.245056 C 30.221002 61.973056 28.447568 63.317208 26.265128 64.279495 C 24.077573 65.24079 21.421138 65.718373 18.299947 65.718352 Z M 18.299947 65.718352 " stroke="#050a30" stroke-width="8.670008" stroke-opacity="1" stroke-miterlimit="4"/><path stroke-linecap="butt" transform="matrix(0.746727, -0.0655659, 0.0655659, 0.746727, 66.952436, 71.529471)" fill="none" stroke-linejoin="miter" d="M 20.281741 65.718473 C 17.498631 65.719968 14.973939 65.221038 12.71759 64.227784 C 10.461698 63.229339 8.520312 61.866172 6.898624 60.138738 C 5.277392 58.406114 4.029947 56.408133 3.151555 54.139149 C 2.273162 51.870166 1.83594 49.462059 1.839889 46.91483 C 1.838647 44.367145 2.273815 41.972864 3.151041 39.727252 C 4.028267 37.48164 5.279963 35.49908 6.900485 33.784306 C 8.521462 32.064341 10.460162 30.717531 12.717497 29.733492 C 14.975288 28.744262 17.497878 28.254319 20.280988 28.252823 C 23.069289 28.251783 25.589246 28.745067 27.84605 29.73313 C 30.10331 30.716002 32.045608 32.068786 33.663016 33.785382 C 35.285615 35.502433 36.534428 37.48484 37.409908 39.727412 C 38.290124 41.975632 38.728713 44.368165 38.724764 46.915394 C 38.726006 49.463079 38.289926 51.867742 37.410422 54.139309 C 36.536564 56.406142 35.288235 58.409922 33.666802 60.135078 C 32.044914 61.865425 30.104846 63.22781 27.846143 64.227422 C 25.587896 65.221843 23.069586 65.722624 20.281741 65.718473 Z M 20.28156 58.154196 C 21.939914 58.153335 23.363325 57.849361 24.552247 57.237084 C 25.74117 56.624808 26.70343 55.793845 27.43338 54.748931 C 28.168521 53.704474 28.707867 52.506814 29.05233 51.14557 C 29.401528 49.789973 29.577419 48.382541 29.575266 46.917627 C 29.575391 45.426757 29.40074 44.019932 29.056048 42.702801 C 28.70662 41.380023 28.166564 40.202672 27.430688 39.170294 C 26.700002 38.138372 25.740705 37.32701 24.552794 36.736208 C 23.364428 36.150597 21.941524 35.853032 20.283169 35.853893 C 18.070452 35.85316 16.283459 36.365843 14.912265 37.385839 C 13.546261 38.406292 12.548803 39.75728 11.925082 41.439261 C 11.301361 43.121241 10.989463 44.945686 10.988932 46.917788 C 10.985894 48.382247 11.160545 49.789071 11.511973 51.148643 C 11.85821 52.507759 12.406826 53.706786 13.146982 54.750002 C 13.892329 55.793674 14.854994 56.626257 16.030699 57.236911 C 17.206404 57.847566 18.623206 58.155058 20.28156 58.154196 Z M 20.28156 58.154196 " stroke="#050a30" stroke-width="8.670008" stroke-opacity="1" stroke-miterlimit="4"/><path stroke-linecap="butt" transform="matrix(0.749478, 0.013526, -0.013526, 0.749478, 100.819742, 68.708188)" fill="none" stroke-linejoin="miter" d="M 24.640647 65.719614 C 22.769597 65.72211 20.908067 65.385656 19.056055 64.710253 C 17.209348 64.039966 15.646611 62.931961 14.373242 61.396566 L 14.375695 64.997987 L 5.296499 65.000271 L 5.295105 14.095067 L 14.374395 14.097993 L 14.374936 32.610871 C 15.644553 31.050429 17.172349 29.933557 18.947904 29.260442 C 20.728763 28.592443 22.578069 28.251562 24.496105 28.25343 C 27.018719 28.254812 29.253187 28.751318 31.199603 29.748159 C 33.140809 30.745094 34.770771 32.112483 36.079162 33.855725 C 37.387554 35.598967 38.377422 37.598132 39.053978 39.853125 C 39.725417 42.113423 40.060164 44.489248 40.058313 46.985811 C 40.061766 49.487491 39.724012 51.854605 39.050545 54.102691 C 38.376984 56.345566 37.3862 58.33878 36.078192 60.082334 C 34.770184 61.825887 33.163632 63.199567 31.253417 64.208678 C 29.343203 65.217789 27.13721 65.721466 24.640647 65.719614 Z M 22.446042 57.612925 C 24.463073 57.613006 26.117249 57.145348 27.41378 56.209856 C 28.710311 55.274364 29.667179 54.001013 30.279174 52.389895 C 30.891263 50.783989 31.19749 48.980335 31.198042 46.989356 C 31.1985 44.993166 30.889539 43.179768 30.28158 41.548972 C 29.668317 39.91306 28.711983 38.616905 27.417697 37.655202 C 26.1182 36.693594 24.462635 36.217912 22.445605 36.21783 C 20.428574 36.217748 18.764166 36.696015 17.452474 37.65784 C 16.145992 38.619572 15.173775 39.908836 14.535917 41.530844 C 13.898059 43.152852 13.581694 44.972324 13.581612 46.989355 C 13.58153 49.006385 13.900817 50.814386 14.534169 52.40824 C 15.172826 54.00721 16.144226 55.271821 17.453767 56.2124 C 18.763214 57.147769 20.423801 57.612937 22.446042 57.612925 Z M 22.446042 57.612925 " stroke="#050a30" stroke-width="8.670008" stroke-opacity="1" stroke-miterlimit="4"/><path stroke-linecap="butt" transform="matrix(0.746123, 0.0721102, -0.0721102, 0.746123, 135.15142, 69.769705)" fill="none" stroke-linejoin="miter" d="M 5.005409 22.200972 L 5.007438 14.096387 L 14.158937 14.096709 L 14.156908 22.201294 Z M 5.225705 64.999965 L 5.223902 29.012044 L 13.940874 29.012478 L 13.942677 65.000399 Z M 5.225705 64.999965 " stroke="#050a30" stroke-width="8.670008" stroke-opacity="1" stroke-miterlimit="4"/><path stroke-linecap="butt" transform="matrix(0.740926, 0.113706, -0.113706, 0.740926, 151.301285, 71.323917)" fill="none" stroke-linejoin="miter" d="M 7.312314 65.001159 L 7.313466 36.357551 L 0.718821 36.362624 L 0.719179 29.013233 L 7.383156 29.013336 L 7.38535 24.183737 C 7.384814 22.428202 7.696005 20.883163 8.322492 19.537527 C 8.948979 18.19189 9.792105 17.055525 10.862964 16.132 C 11.928672 15.209265 13.155152 14.509648 14.538833 14.044239 C 15.916573 13.57447 17.36237 13.342046 18.875434 13.341817 C 20.077485 13.341868 21.226396 13.476605 22.317807 13.75197 C 23.410008 14.032485 24.439584 14.385877 25.397023 14.818877 L 22.516775 22.056658 C 22.107209 21.792641 21.65761 21.576944 21.162826 21.410359 C 20.673193 21.242983 20.185906 21.159601 19.706115 21.159422 C 18.815076 21.15909 18.043576 21.456741 17.382105 22.059105 C 16.719843 22.656319 16.389834 23.66649 16.391287 25.084467 L 16.392995 29.011935 L 24.785961 29.010304 L 24.785603 36.359695 L 16.392637 36.361326 L 16.390694 64.999784 Z M 7.312314 65.001159 " stroke="#050a30" stroke-width="8.670008" stroke-opacity="1" stroke-miterlimit="4"/><g clip-path="url(#b53e60df8d)"><path stroke-linecap="butt" transform="matrix(0.729667, 0.171716, -0.171716, 0.729667, 172.276425, 74.462575)" fill="none" stroke-linejoin="miter" d="M 7.240884 80.490913 L 13.869822 64.026831 L -0.216609 29.011008 L 9.440403 29.008249 L 18.515926 54.014559 L 27.739312 29.011423 L 37.396324 29.008663 L 16.823299 80.489648 Z M 7.240884 80.490913 " stroke="#050a30" stroke-width="8.670008" stroke-opacity="1" stroke-miterlimit="4"/></g><g fill="#233dff" fill-opacity="1"><g transform="translate(42.594713, 125.69176)"><g><path d="M 13.578125 -2.078125 C 11.660156 -1.710938 9.882812 -1.703125 8.25 -2.046875 C 6.613281 -2.398438 5.148438 -3.03125 3.859375 -3.9375 C 2.566406 -4.851562 1.472656 -5.988281 0.578125 -7.34375 C -0.316406 -8.695312 -0.988281 -10.191406 -1.4375 -11.828125 L 5.046875 -13.890625 C 5.359375 -12.671875 5.832031 -11.59375 6.46875 -10.65625 C 7.101562 -9.71875 7.90625 -9.023438 8.875 -8.578125 C 9.851562 -8.140625 11.015625 -8.050781 12.359375 -8.3125 C 13.984375 -8.625 15.160156 -9.164062 15.890625 -9.9375 C 16.628906 -10.71875 17.039062 -11.710938 17.125 -12.921875 C 17.21875 -14.140625 17.101562 -15.5625 16.78125 -17.1875 L 13.328125 -35.0625 L -0.78125 -32.3125 L -1.984375 -38.46875 L 18.859375 -42.515625 L 23.5 -18.59375 C 23.882812 -16.582031 24.007812 -14.679688 23.875 -12.890625 C 23.75 -11.109375 23.304688 -9.484375 22.546875 -8.015625 C 21.796875 -6.546875 20.6875 -5.300781 19.21875 -4.28125 C 17.757812 -3.257812 15.878906 -2.523438 13.578125 -2.078125 Z M 13.578125 -2.078125 "/></g></g></g><g fill="#233dff" fill-opacity="1"><g transform="translate(71.214219, 120.066725)"><g><path d="M 15.1875 -0.78125 C 13.113281 -0.601562 11.195312 -0.8125 9.4375 -1.40625 C 7.6875 -2.007812 6.148438 -2.90625 4.828125 -4.09375 C 3.503906 -5.28125 2.441406 -6.6875 1.640625 -8.3125 C 0.835938 -9.945312 0.351562 -11.722656 0.1875 -13.640625 C 0.0195312 -15.535156 0.1875 -17.347656 0.6875 -19.078125 C 1.195312 -20.816406 2 -22.378906 3.09375 -23.765625 C 4.195312 -25.148438 5.5625 -26.285156 7.1875 -27.171875 C 8.8125 -28.054688 10.660156 -28.585938 12.734375 -28.765625 C 14.816406 -28.953125 16.734375 -28.75 18.484375 -28.15625 C 20.234375 -27.570312 21.769531 -26.691406 23.09375 -25.515625 C 24.414062 -24.335938 25.476562 -22.941406 26.28125 -21.328125 C 27.082031 -19.710938 27.566406 -17.957031 27.734375 -16.0625 C 27.898438 -14.144531 27.726562 -12.3125 27.21875 -10.5625 C 26.71875 -8.8125 25.914062 -7.238281 24.8125 -5.84375 C 23.71875 -4.445312 22.359375 -3.300781 20.734375 -2.40625 C 19.117188 -1.507812 17.269531 -0.96875 15.1875 -0.78125 Z M 14.6875 -6.4375 C 15.925781 -6.550781 16.972656 -6.875 17.828125 -7.40625 C 18.679688 -7.945312 19.34375 -8.628906 19.8125 -9.453125 C 20.289062 -10.285156 20.613281 -11.21875 20.78125 -12.25 C 20.957031 -13.28125 21 -14.347656 20.90625 -15.453125 C 20.8125 -16.554688 20.585938 -17.59375 20.234375 -18.5625 C 19.890625 -19.53125 19.410156 -20.375 18.796875 -21.09375 C 18.179688 -21.820312 17.410156 -22.363281 16.484375 -22.71875 C 15.554688 -23.082031 14.472656 -23.207031 13.234375 -23.09375 C 11.585938 -22.945312 10.285156 -22.445312 9.328125 -21.59375 C 8.378906 -20.738281 7.722656 -19.660156 7.359375 -18.359375 C 7.003906 -17.066406 6.890625 -15.691406 7.015625 -14.234375 C 7.109375 -13.128906 7.328125 -12.082031 7.671875 -11.09375 C 8.023438 -10.101562 8.515625 -9.242188 9.140625 -8.515625 C 9.765625 -7.785156 10.535156 -7.226562 11.453125 -6.84375 C 12.378906 -6.46875 13.457031 -6.332031 14.6875 -6.4375 Z M 14.6875 -6.4375 "/></g></g></g><g fill="#233dff" fill-opacity="1"><g transform="translate(99.940551, 117.42425)"><g><path d="M 18.453125 0.875 C 17.046875 0.851562 15.65625 0.578125 14.28125 0.046875 C 12.90625 -0.484375 11.753906 -1.335938 10.828125 -2.515625 L 10.78125 0.1875 L 3.96875 0.078125 L 4.65625 -38.078125 L 11.46875 -37.96875 L 11.21875 -24.09375 C 12.1875 -25.238281 13.34375 -26.050781 14.6875 -26.53125 C 16.03125 -27.007812 17.421875 -27.238281 18.859375 -27.21875 C 20.753906 -27.1875 22.421875 -26.78125 23.859375 -26 C 25.304688 -25.226562 26.507812 -24.179688 27.46875 -22.859375 C 28.425781 -21.535156 29.140625 -20.019531 29.609375 -18.3125 C 30.085938 -16.613281 30.3125 -14.828125 30.28125 -12.953125 C 30.238281 -11.078125 29.953125 -9.300781 29.421875 -7.625 C 28.890625 -5.957031 28.117188 -4.476562 27.109375 -3.1875 C 26.109375 -1.90625 24.882812 -0.894531 23.4375 -0.15625 C 21.988281 0.570312 20.328125 0.914062 18.453125 0.875 Z M 16.921875 -5.234375 C 18.429688 -5.203125 19.679688 -5.53125 20.671875 -6.21875 C 21.660156 -6.90625 22.394531 -7.847656 22.875 -9.046875 C 23.351562 -10.242188 23.609375 -11.585938 23.640625 -13.078125 C 23.660156 -14.578125 23.453125 -15.941406 23.015625 -17.171875 C 22.578125 -18.410156 21.878906 -19.394531 20.921875 -20.125 C 19.960938 -20.863281 18.726562 -21.25 17.21875 -21.28125 C 15.707031 -21.300781 14.453125 -20.960938 13.453125 -20.265625 C 12.453125 -19.566406 11.703125 -18.609375 11.203125 -17.390625 C 10.710938 -16.179688 10.457031 -14.820312 10.4375 -13.3125 C 10.40625 -11.800781 10.613281 -10.441406 11.0625 -9.234375 C 11.519531 -8.035156 12.234375 -7.070312 13.203125 -6.34375 C 14.171875 -5.625 15.410156 -5.253906 16.921875 -5.234375 Z M 16.921875 -5.234375 "/></g></g></g><g fill="#233dff" fill-opacity="1"><g transform="translate(130.464258, 118.267731)"><g><path d="M 6.8125 -31.5625 L 7.40625 -37.625 L 14.234375 -36.96875 L 13.640625 -30.90625 Z M 3.90625 0.375 L 6.5 -26.484375 L 13 -25.859375 L 10.40625 1 Z M 3.90625 0.375 "/></g></g></g><g fill="#233dff" fill-opacity="1"><g transform="translate(143.910375, 119.484091)"><g><path d="M 5.421875 0.828125 L 8.671875 -20.390625 L 3.796875 -21.140625 L 4.640625 -26.59375 L 9.5625 -25.828125 L 10.109375 -29.390625 C 10.304688 -30.703125 10.710938 -31.820312 11.328125 -32.75 C 11.953125 -33.675781 12.710938 -34.414062 13.609375 -34.96875 C 14.503906 -35.53125 15.488281 -35.90625 16.5625 -36.09375 C 17.644531 -36.289062 18.75 -36.304688 19.875 -36.140625 C 20.757812 -36.003906 21.585938 -35.769531 22.359375 -35.4375 C 23.140625 -35.113281 23.863281 -34.734375 24.53125 -34.296875 L 21.546875 -29.25 C 21.285156 -29.5 20.984375 -29.710938 20.640625 -29.890625 C 20.296875 -30.078125 19.941406 -30.203125 19.578125 -30.265625 C 18.929688 -30.359375 18.328125 -30.21875 17.765625 -29.84375 C 17.203125 -29.476562 16.835938 -28.769531 16.671875 -27.71875 L 16.234375 -24.8125 L 22.453125 -23.859375 L 21.609375 -18.40625 L 15.390625 -19.359375 L 12.140625 1.859375 Z M 5.421875 0.828125 "/></g></g></g><g fill="#233dff" fill-opacity="1"><g transform="translate(161.114886, 121.890919)"><g><path d="M 2.625 12.53125 L 10.28125 1.65625 L 6.03125 -26.296875 L 13.078125 -24.640625 L 15.390625 -4.84375 L 26.4375 -21.5 L 33.46875 -19.84375 L 9.625 14.1875 Z M 2.625 12.53125 "/></g></g></g><g clip-path="url(#18e5210637)"><g clip-path="url(#400b5e6e5c)"><g clip-path="url(#d1a36796be)"><path fill="#050a30" d="M 130.164062 62.378906 C 128.558594 69.078125 122.300781 73.828125 115.203125 73.324219 C 108.109375 72.816406 102.832031 67.476562 101.992188 60.824219 L 97.382812 62.445312 C 98.902344 70.847656 105.953125 77.480469 114.863281 78.113281 C 121.980469 78.621094 128.460938 75.167969 132.15625 69.632812 C 133.835938 67.113281 132.894531 63.691406 130.164062 62.378906 Z M 130.164062 62.378906 " fill-opacity="1" fill-rule="nonzero"/></g></g></g><g clip-path="url(#ab18f47186)"><g clip-path="url(#0d75827d79)"><g clip-path="url(#906afdb23e)"><path fill="#050a30" d="M 135.664062 58.253906 C 135.46875 58.15625 135.339844 57.964844 135.324219 57.75 C 134.710938 48.351562 127.238281 40.609375 117.578125 39.925781 C 107.921875 39.238281 99.058594 46.132812 97.375 55.664062 C 97.335938 55.875 97.183594 56.054688 96.980469 56.125 L 91.652344 57.996094 C 91.339844 58.105469 91.171875 58.453125 91.28125 58.765625 L 92.464844 62.128906 C 92.574219 62.441406 92.917969 62.609375 93.234375 62.496094 L 97.1875 61.109375 L 101.886719 59.457031 L 109.917969 56.636719 L 109.9375 56.628906 C 110.238281 56.523438 110.542969 56.554688 110.792969 56.683594 C 110.816406 56.695312 110.839844 56.703125 110.863281 56.714844 C 111.015625 56.769531 111.167969 56.847656 111.300781 56.949219 C 111.773438 57.300781 112.042969 57.859375 112.023438 58.445312 L 112.019531 58.488281 C 111.976562 60.160156 112.941406 61.632812 114.371094 62.308594 C 114.8125 62.488281 115.28125 62.605469 115.773438 62.644531 C 116.296875 62.6875 116.804688 62.644531 117.289062 62.53125 C 117.304688 62.527344 117.320312 62.523438 117.335938 62.515625 C 117.863281 62.355469 118.355469 62.082031 118.789062 61.710938 C 119.628906 60.992188 120.136719 59.988281 120.214844 58.886719 L 120.214844 58.871094 C 120.253906 58.265625 120.589844 57.722656 121.109375 57.421875 C 121.289062 57.316406 121.480469 57.246094 121.679688 57.207031 C 121.953125 57.105469 122.265625 57.109375 122.558594 57.25 L 122.617188 57.277344 L 130.421875 61.023438 L 134.910156 63.179688 L 138.671875 64.984375 C 138.972656 65.128906 139.332031 65.003906 139.476562 64.703125 L 141.019531 61.488281 C 141.164062 61.191406 141.039062 60.828125 140.738281 60.683594 L 135.664062 58.25 Z M 127.160156 54.171875 C 120.496094 50.972656 112.835938 50.554688 105.863281 53.003906 L 104.03125 53.648438 C 103.523438 53.824219 103.054688 53.300781 103.289062 52.8125 C 105.761719 47.664062 111.195312 44.285156 117.238281 44.714844 C 123.28125 45.144531 127.917969 49.042969 129.753906 54.273438 C 129.933594 54.78125 129.410156 55.25 128.925781 55.019531 Z M 127.160156 54.171875 " fill-opacity="1" fill-rule="nonzero"/></g></g></g></svg>